<svg width="22" height="24" viewBox="0 0 22 24" fill="none" xmlns="http://www.w3.org/2000/svg">
<path fill-rule="evenodd" clip-rule="evenodd" d="M7.625 4.22222C7.00368 4.22222 6.5 4.71968 6.5 5.33333C6.5 5.94698 7.00368 6.44444 7.625 6.44444C8.24632 6.44444 8.75 5.94698 8.75 5.33333C8.75 4.71968 8.24632 4.22222 7.625 4.22222ZM4.44204 4.22222C4.90536 2.92756 6.1555 2 7.625 2C9.0945 2 10.3446 2.92756 10.808 4.22222H18.875C19.4963 4.22222 20 4.71968 20 5.33333C20 5.94698 19.4963 6.44444 18.875 6.44444H10.808C10.3446 7.7391 9.0945 8.66667 7.625 8.66667C6.1555 8.66667 4.90536 7.7391 4.44204 6.44444H3.125C2.50368 6.44444 2 5.94698 2 5.33333C2 4.71968 2.50368 4.22222 3.125 4.22222H4.44204ZM14.375 10.8889C13.7537 10.8889 13.25 11.3864 13.25 12C13.25 12.6137 13.7537 13.1111 14.375 13.1111C14.9963 13.1111 15.5 12.6137 15.5 12C15.5 11.3864 14.9963 10.8889 14.375 10.8889ZM11.192 10.8889C11.6554 9.59423 12.9055 8.66667 14.375 8.66667C15.8445 8.66667 17.0946 9.59423 17.558 10.8889H18.875C19.4963 10.8889 20 11.3864 20 12C20 12.6137 19.4963 13.1111 18.875 13.1111H17.558C17.0946 14.4058 15.8445 15.3333 14.375 15.3333C12.9055 15.3333 11.6554 14.4058 11.192 13.1111H3.125C2.50368 13.1111 2 12.6137 2 12C2 11.3864 2.50368 10.8889 3.125 10.8889H11.192ZM7.625 17.5556C7.00368 17.5556 6.5 18.053 6.5 18.6667C6.5 19.2803 7.00368 19.7778 7.625 19.7778C8.24632 19.7778 8.75 19.2803 8.75 18.6667C8.75 18.053 8.24632 17.5556 7.625 17.5556ZM4.44204 17.5556C4.90536 16.2609 6.1555 15.3333 7.625 15.3333C9.0945 15.3333 10.3446 16.2609 10.808 17.5556H18.875C19.4963 17.5556 20 18.053 20 18.6667C20 19.2803 19.4963 19.7778 18.875 19.7778H10.808C10.3446 21.0724 9.0945 22 7.625 22C6.1555 22 4.90536 21.0724 4.44204 19.7778H3.125C2.50368 19.7778 2 19.2803 2 18.6667C2 18.053 2.50368 17.5556 3.125 17.5556H4.44204Z" fill="#C0C0C0"/>
</svg>
